<?xml version="1.0" encoding="utf-8"?>
<!-- Generator: Adobe Illustrator 22.0.0, SVG Export Plug-In . SVG Version: 6.00 Build 0)  -->
<svg version="1.1" id="Layer_1" xmlns="http://www.w3.org/2000/svg" xmlns:xlink="http://www.w3.org/1999/xlink" x="0px" y="0px"
	 viewBox="0 0 300 300" style="enable-background:new 0 0 300 300;" xml:space="preserve">
<style type="text/css">
	.st0{opacity:0.15;clip-path:url(#SVGID_2_);fill:#FFFFFF;enable-background:new    ;}
	.st1{clip-path:url(#SVGID_4_);}
	.st2{fill:#FFFFFF;}
</style>
<g>
	<g>
		<g>
			<g>
				<defs>
					<rect id="SVGID_1_" width="300" height="300"/>
				</defs>
				<clipPath id="SVGID_2_">
					<use xlink:href="#SVGID_1_"  style="overflow:visible;"/>
				</clipPath>
				<circle class="st0" cx="306.6" cy="308.5" r="100.6"/>
			</g>
		</g>
		<g>
			<g>
				<defs>
					<rect id="SVGID_3_" width="300" height="300"/>
				</defs>
				<clipPath id="SVGID_4_">
					<use xlink:href="#SVGID_3_"  style="overflow:visible;"/>
				</clipPath>
				<g class="st1">
					<path class="st2" d="M300,267.5c-0.2,1.1-0.3,2.2-0.6,3.2c-0.8,3.6-2.7,6.7-5.3,9.3c-0.8,0.8-1.6,1.5-2.4,2.4
						c-0.3,0.3-0.4,0.6-0.6,0.9c-1,1.4-2.3,2-4,2c-0.2,3-1.9,4.6-4.9,4.9c-0.2,3-1.9,4.6-4.9,4.9c-0.2,0.7-0.2,1.4-0.5,2
						c-1.4,3.1-5.2,3.8-7.7,1.4c-0.8-0.7-1.5-1.5-2.3-2.3c-0.6,0.6-1.1,1.1-1.6,1.7c-1.9,1.9-4.5,2-6.5,0.3c-0.9-0.8-1.4-1.8-1.6-3
						c0-0.2,0-0.4-0.1-0.6c-3-0.3-4.7-1.9-4.9-4.9c-3.5-0.8-4.4-1.7-4.9-4.9c-0.5-0.1-1.1-0.2-1.6-0.3c-1.7-0.6-2.8-1.7-3.2-3.5
						c-0.1-0.3-0.3-0.7-0.5-0.9c-7.2-6.9-8-18.3-1.6-26.1c3.5-4.3,8.1-6.7,13.7-7c5-0.3,9.5,1.2,13.4,4.4c0.1,0.1,0.3,0.2,0.5,0.4
						c0.1-0.1,0.3-0.2,0.4-0.3c4.2-3.4,8.9-4.9,14.3-4.4c2.5,0.2,4.9,1,7.2,2.2c0.8,0.4,1,1.1,0.7,1.7c-0.3,0.7-1.1,0.9-1.8,0.5
						c-1.8-0.9-3.7-1.6-5.8-1.9c-4.4-0.5-8.5,0.5-12.1,3.1c-0.7,0.5-1.4,1.1-2.1,1.8c-2.8,2.7-5.5,5.5-8.3,8.2
						c-1.2,1.2-1.4,2.6-0.6,3.8c1,1.5,3,1.7,4.3,0.5c1.2-1.1,2.3-2.3,3.4-3.4c0.5-0.5,1-0.7,1.8-0.7c1.7,0,3.3,0,5-0.1
						c1.6-0.1,2.8-0.8,3.9-1.9c0.7-0.7,1.4-1.4,2.1-2.1c0.6-0.6,1.2-0.6,1.7-0.3c0.7,0.5,0.7,1.3,0,2c-1.4,1.4-2.7,3-4.6,3.9
						c0.2,0.2,0.3,0.4,0.5,0.5c3.8,3.8,7.5,7.5,11.3,11.3c0.8,0.8,1.5,1.6,2.3,2.6c0.8-1,1.9-2,2.7-3.2c3.6-5.6,4-11.4,1-17.3
						c-0.5-1-0.4-1.7,0.3-2.1c0.7-0.4,1.4,0,1.9,1c1.2,2.3,1.9,4.7,2.2,7.2c0,0.1,0.1,0.2,0.1,0.4C300,265.7,300,266.6,300,267.5z
						 M263.8,287.8c0.1,0,0.2,0,0.2,0c3.4,0.5,5,2.6,4.4,6.1c0,0.2,0,0.4,0.1,0.5c0.9,0.9,1.7,1.8,2.6,2.6c1.2,1.1,3.1,0.4,3.5-1.2
						c0.2-0.9-0.1-1.7-0.8-2.3c-2.2-2.2-4.4-4.3-6.5-6.5c-0.7-0.7-0.8-1.4-0.2-2c0.5-0.5,1.3-0.5,1.9,0.2c1.2,1.2,2.5,2.4,3.7,3.6
						c1.1,1.1,2.1,2.1,3.2,3.2c0.7,0.7,1.7,0.8,2.5,0.3c0.8-0.4,1.3-1.3,1.1-2.2c-0.1-0.5-0.5-1.1-0.9-1.5c-3.1-3.2-6.3-6.3-9.4-9.5
						c-0.2-0.2-0.4-0.4-0.5-0.6c-0.3-0.5-0.2-1.1,0.1-1.5c0.4-0.4,1-0.5,1.5-0.2c0.2,0.1,0.4,0.3,0.6,0.5c3.1,3.1,6.2,6.2,9.4,9.3
						c0.2,0.2,0.4,0.4,0.6,0.5c0.7,0.5,1.5,0.6,2.2,0.2c0.8-0.4,1.2-1,1.3-1.9c0.1-0.8-0.3-1.4-0.8-1.9c-3.2-3.2-6.3-6.3-9.5-9.5
						c-0.2-0.2-0.4-0.4-0.5-0.6c-0.3-0.5-0.3-1.1,0.1-1.5c0.4-0.4,1.1-0.5,1.6-0.1c0.2,0.1,0.4,0.3,0.6,0.5c3.2,3.2,6.4,6.4,9.6,9.6
						c1,1,2.3,1,3.2,0.1c0.9-0.9,0.9-2.2-0.1-3.2c-4.5-4.5-9-9-13.5-13.5c-0.1-0.1-0.4-0.2-0.6-0.2c-1.5,0-3,0-4.5,0
						c-0.4,0-0.8,0.1-1.1,0.4c-1.1,1.2-2.3,2.3-3.5,3.4c-2.4,2-6.3,1.2-7.9-1.5c-1.3-2.3-0.9-4.7,1-6.7c2.3-2.3,4.6-4.7,7-7
						c0.2-0.2,0.4-0.2,0.6-0.3c-6.5-5.9-17.5-5.9-24,1.9c-6.1,7.4-4.1,17.3,0.6,21.8c1.1-1,2.1-2.1,3.2-3c2.7-2.3,6.7-1,7.6,2.4
						c0.1,0.4,0.1,0.8,0.2,1.3c3,0.3,4.6,1.9,4.9,4.9C261.4,283.1,263.6,284.5,263.8,287.8z M258.9,285.4c-0.3,0.1-0.8,0.2-1.1,0.5
						c-0.9,0.8-1.8,1.6-2.6,2.5c-0.7,0.8-0.6,2.1,0.2,2.9c0.8,0.8,2.1,0.9,2.9,0.2c0.9-0.8,1.8-1.7,2.5-2.5c0.6-0.7,0.6-1.5,0.2-2.3
						C260.6,285.9,260,285.5,258.9,285.4z M262,296.9c0.2-0.1,0.7-0.2,1-0.4c1-0.9,1.9-1.7,2.7-2.7c0.7-0.8,0.5-2.1-0.3-2.8
						c-0.8-0.7-2-0.8-2.8-0.1c-0.9,0.8-1.7,1.7-2.5,2.5c-0.6,0.7-0.6,1.5-0.3,2.3C260.2,296.5,260.9,296.9,262,296.9z M252.1,287.2
						c0.4-0.2,1-0.3,1.3-0.6c0.9-0.8,1.7-1.6,2.5-2.5c0.8-0.8,0.7-2.1-0.1-2.9c-0.8-0.8-2-0.9-2.9-0.2c-0.9,0.8-1.8,1.7-2.5,2.5
						c-0.6,0.7-0.6,1.5-0.2,2.3C250.5,286.7,251.2,287.1,252.1,287.2z M249,275.7c-0.2,0.1-0.7,0.2-1.1,0.5
						c-0.9,0.8-1.7,1.6-2.4,2.4c-0.8,0.9-0.7,2.1,0.1,2.9c0.8,0.8,2.1,0.9,2.9,0.2c0.9-0.8,1.8-1.7,2.6-2.6c0.6-0.7,0.6-1.5,0.2-2.3
						C250.9,276.1,250.2,275.7,249,275.7z"/>
					<path class="st2" d="M292.4,253.3c0-0.7,0.6-1.2,1.3-1.2c0.7,0,1.2,0.6,1.2,1.3c0,0.7-0.6,1.2-1.3,1.2
						C292.9,254.6,292.3,254,292.4,253.3z"/>
					<path class="st2" d="M266.2,282.8c0,0.7-0.6,1.2-1.2,1.2c-0.7,0-1.2-0.6-1.2-1.2c0-0.7,0.6-1.2,1.2-1.2
						C265.6,281.6,266.2,282.1,266.2,282.8z"/>
				</g>
			</g>
		</g>
	</g>
</g>
</svg>
