<?xml version="1.0" encoding="utf-8"?>
<!-- Generator: Adobe Illustrator 22.0.0, SVG Export Plug-In . SVG Version: 6.00 Build 0)  -->
<svg version="1.1" id="Layer_1" xmlns="http://www.w3.org/2000/svg" xmlns:xlink="http://www.w3.org/1999/xlink" x="0px" y="0px"
	 viewBox="0 0 300 300" style="enable-background:new 0 0 300 300;" xml:space="preserve">
<style type="text/css">
	.st0{opacity:0.15;clip-path:url(#SVGID_2_);fill:#FFFFFF;enable-background:new    ;}
	.st1{clip-path:url(#SVGID_4_);fill:#FFFFFF;}
</style>
<g>
	<g>
		<g>
			<defs>
				<rect id="SVGID_1_" width="300" height="300"/>
			</defs>
			<clipPath id="SVGID_2_">
				<use xlink:href="#SVGID_1_"  style="overflow:visible;"/>
			</clipPath>
			<circle class="st0" cx="306.6" cy="308.5" r="100.6"/>
		</g>
		<g>
			<defs>
				<rect id="SVGID_3_" width="300" height="300"/>
			</defs>
			<clipPath id="SVGID_4_">
				<use xlink:href="#SVGID_3_"  style="overflow:visible;"/>
			</clipPath>
			<path class="st1" d="M300,255.3c0,0.7,0,1.3,0,2c0,0.1-0.1,0.1-0.1,0.2c-0.4,3-1.9,5.3-4.5,6.8c-0.3,0.2-0.3,0.4-0.2,0.7
				c0.7,2.1,1.1,4.3,1.1,6.5c0.1,5.4-1.4,10.3-4.5,14.7c-5.8,8.2-16.7,12-26.3,9.1c-1.1-0.3-2.2-0.7-3.3-1.1c0,0.1-0.1,0.2-0.2,0.3
				c-1.1,2.3-2.8,3.9-5.1,4.8c-0.8,0.3-1.6,0.4-2.4,0.7c-0.7,0-1.3,0-2,0c-0.1,0-0.2-0.1-0.3-0.1c-3.8-0.7-6.3-2.8-7.6-6.5
				c-0.2-0.6-0.3-1.2-0.4-1.8c0-0.5,0-1.1,0-1.6c0-0.1,0.1-0.3,0.1-0.4c0.3-2.2,1.2-4.2,2.9-5.6c0.8-0.7,1.8-1.3,2.8-2
				c-2.8-6.5-2.8-13.2,0.1-19.8c-0.2-0.1-0.3-0.2-0.5-0.2c-2.2-1-3.8-2.7-4.7-4.9c-0.3-0.8-0.5-1.7-0.7-2.6c0-0.7,0-1.3,0-2
				c0-0.1,0.1-0.2,0.1-0.2c0.7-3.9,2.9-6.4,6.6-7.7c0.5-0.2,1.1-0.3,1.6-0.4c0.7,0,1.3,0,2,0c0.1,0,0.2,0.1,0.3,0.1
				c2,0.3,3.8,1.1,5.2,2.6c0.9,0.9,1.6,2,2.2,3.2c0.2-0.1,0.4-0.2,0.6-0.2c6.8-2.7,13.4-2.5,20,0.6c0.4,0.2,0.7,0.2,1-0.2
				c4.3-5,12.4-4,15.3,2C299.5,253.1,299.7,254.2,300,255.3z M261.6,286.3c1.4-0.5,2.6,0,3.7,0.8c0.3,0.2,0.6,0.4,0.8,0.6
				c0.6,0.4,1.2,0.6,2,0.5c0.6,0,1.1,0,1.7-0.1c1-0.1,1.7,0.3,2.2,1.2c0.5,0.8,0.9,1.6,1.3,2.5c0.3,0.7,0.7,1.4,1,2.1
				c0.1,0.3,0.4,0.4,0.7,0.4c4.2-0.6,8-2.2,11.3-5c3.6-2.9,6-6.7,7.3-11.1c-1.5-0.2-2.4-1.2-3.4-2.1c-0.2-0.2-0.4-0.4-0.7-0.5
				c-0.7-0.5-1.4-0.6-2.1-0.1c-0.4,0.3-0.9,0.7-1.1,1.2c-0.7,1.3-0.8,2.7-0.9,4.1c-0.2,1.9-0.7,3.7-2,5.1c-0.7,0.7-1.4,1.4-2.2,2
				c-1.7,1.3-4.2,0.5-4.7-1.6c-0.1-0.5-0.1-1.2-0.1-1.7c0.1-2-0.5-3.8-1.7-5.4c-0.6-0.8-1.2-1.5-1.8-2.3c-1.1-1.6-1-3.5,0.3-5
				c0.6-0.7,1.4-1.3,2.2-1.8c0.8-0.5,1.7-0.8,2.5-1.3c1.6-0.9,2.8-2.5,1.4-4.7c-0.4-0.7-0.9-1.4-1.4-2.1c-2.1-3.1-2.3-6.3-0.7-9.7
				c0.3-0.5,0.6-1,1-1.6c-3.5-1-7-1.1-10.6-0.3c0.1,0.2,0.1,0.3,0.2,0.4c0.8,1.5,1,3,0.3,4.5c-0.3,0.7-0.9,1.4-1.4,2
				c-0.7,0.8-0.8,1.7-0.6,2.7c0.2,0.9,0.6,1.9,0.9,2.8c0.6,1.6,0.2,2.9-1.1,3.9c-1.6,1.2-3.3,2.5-4.9,3.7c-1.6,1.2-2.3,2.8-2,4.9
				c0.3,2.2,0.1,4.2-1.1,6.1c-0.2,0.3-0.4,0.6-0.6,1C259.1,283,260.6,284.4,261.6,286.3z M282.3,252.2c-0.7-0.3-1.3-0.6-2-0.9
				c-0.1,0-0.4,0-0.4,0.1c-2,2.3-2.5,4.9-1.4,7.8c0.5,1.2,1.4,2.3,2.1,3.5c1.6,2.6,1.4,4.9-0.8,6.8c-0.8,0.6-1.7,1-2.6,1.5
				c-0.8,0.5-1.6,0.9-2.2,1.4c-1.2,1-1.4,2.2-0.4,3.5c0.5,0.7,1,1.3,1.5,1.9c0.9,1.1,1.6,2.4,1.8,3.8c0.2,1,0.2,2.1,0.2,3.2
				c0,0.6,0.1,1.1,0.7,1.4c0.6,0.3,1,0,1.5-0.3c2-1.5,3.1-3.4,3.2-6c0.1-1.6,0.4-3,1.1-4.5c1.2-2.6,4.2-3.3,6.4-1.5
				c0.5,0.4,1,0.9,1.5,1.3c0.4,0.4,0.9,0.7,1.5,0.7c0.8-2.6,0.4-8.9-0.7-11C285.5,267.3,278.9,259.6,282.3,252.2z M249.7,272
				c0,3.2,0.7,6.2,1.9,9.1c0.1,0.3,0.2,0.4,0.6,0.3c0.8,0,1.7,0,2.6,0c0.3,0,0.5-0.1,0.7-0.3c1.4-1.8,1.9-3.7,1.5-5.9
				c-0.4-2.8,0.6-5,2.9-6.7c1.6-1.2,3.2-2.4,4.8-3.6c0.7-0.5,0.8-0.9,0.5-1.7c-0.3-0.8-0.6-1.6-0.9-2.5c-0.4-1.4-0.5-2.8,0.3-4.1
				c0.4-0.6,0.9-1.2,1.3-1.7c0.9-1.1,0.8-2.9-0.2-4c-0.1-0.1-0.4-0.2-0.6-0.1c-0.7,0.2-1.4,0.5-2.1,0.8c-0.3,0.1-0.3,0.3-0.3,0.6
				c0,1.1,0.1,2.3-0.2,3.4c-1.1,4.8-5.7,7.6-10.1,7c-0.5-0.1-0.6,0.1-0.8,0.5C250.4,266,249.7,269,249.7,272z M259.1,295.5
				c2.3-2.5,2.7-7.3-0.6-10.3c-3.2-3-8.2-2.5-10.9,0.9c-2.7,3.5-1.5,7.8,0.2,9.4c0.1-1.9,0.9-3.5,2.4-4.7c0-0.1-0.1-0.2-0.1-0.2
				c-0.8-1.7-0.4-3.5,1-4.6c1.3-1.1,3.2-1.1,4.5-0.1c1.4,1.1,1.9,2.9,1.1,4.6c-0.1,0.3-0.1,0.4,0.2,0.6c1,0.8,1.6,1.7,1.9,2.9
				C259,294.4,259,294.9,259.1,295.5z M287.5,256.3c-1.1-2.2-0.2-4,0.9-4.9c1.3-1,3.2-1,4.5-0.1c1.5,1.2,1.9,2.8,1,5
				c1.6,1.1,2.3,2.7,2.4,4.7c2.4-2.6,2.6-7.2-0.5-10.2c-3.1-2.9-7.8-2.7-10.7,0.4c-2.8,3.1-2.2,7.6,0,9.8
				C285.1,259,285.9,257.5,287.5,256.3z M250.1,253.6c-0.2-0.8-0.4-1.4-0.4-2c0-1.5,0.9-2.9,2.3-3.4c1.4-0.6,3.1-0.2,4.1,0.9
				c1.1,1.1,1.3,2.7,0.7,4.1c-0.1,0.3-0.1,0.4,0.1,0.6c1,0.7,1.6,1.7,1.9,2.9c0.1,0.5,0.2,1,0.2,1.5c2.3-2.4,2.6-7.1-0.3-10
				c-3.2-3.1-8-3-10.9,0.4c-2.6,2.9-2.2,7.4,0,9.6C247.9,256.2,248.7,254.7,250.1,253.6z M253.4,261c0.9-0.2,1.8-0.4,2.7-0.6
				c0.2-0.1,0.5-0.3,0.6-0.5c0.9-1.6,0.4-3.8-1.2-4.8c-0.2-0.1-0.4-0.1-0.6-0.1c-1,0.4-1.9,0.4-2.9,0c-0.2-0.1-0.5-0.1-0.7,0
				c-1.5,1-2.1,3.2-1.2,4.8c0.1,0.2,0.4,0.5,0.6,0.5C251.7,260.6,252.5,260.8,253.4,261z M253.4,298.3c0.9-0.2,1.8-0.4,2.6-0.6
				c0.3-0.1,0.6-0.3,0.7-0.6c0.9-1.6,0.4-3.7-1.1-4.7c-0.2-0.1-0.5-0.2-0.7-0.1c-1,0.4-1.9,0.4-2.9,0c-0.2-0.1-0.5-0.1-0.7,0.1
				c-1.5,1-2,3.1-1.1,4.7c0.1,0.3,0.4,0.5,0.7,0.6C251.7,297.9,252.5,298,253.4,298.3z M290.7,263.8c0.8-0.2,1.7-0.3,2.5-0.6
				c0.3-0.1,0.6-0.4,0.8-0.7c0.8-1.6,0.3-3.6-1.2-4.7c-0.2-0.2-0.4-0.2-0.7-0.1c-0.9,0.4-1.9,0.4-2.8,0c-0.3-0.1-0.5-0.1-0.7,0.1
				c-1.3,0.9-1.8,2.5-1.4,4.1c0.2,0.8,0.6,1.3,1.4,1.4C289.2,263.5,289.9,263.6,290.7,263.8z M272.4,294.4c-0.5-1.2-1.1-2.2-1.5-3.3
				c-0.4-1-1.1-1.3-2.1-1.1c-1.7,0.3-3.1-0.3-4.4-1.3c-0.4-0.3-0.9-0.5-1.3-0.7c-0.2-0.1-0.5,0-0.7,0c0.4,1.4,0.5,2.7,0.3,4
				c0,0.3,0.1,0.4,0.3,0.5c1,0.3,1.9,0.8,2.9,1C267.9,294.2,270.1,294.4,272.4,294.4z M253.4,253.4c1.1,0,1.9-0.8,1.8-1.9
				c0-1-0.8-1.8-1.8-1.8c-1,0-1.9,0.9-1.9,1.9C251.6,252.6,252.4,253.4,253.4,253.4z M288.8,254.4c0,1,0.8,1.8,1.8,1.8
				c1,0,1.9-0.9,1.9-1.9c0-1-0.8-1.8-1.8-1.8C289.7,252.5,288.8,253.3,288.8,254.4z M253.4,287c-1,0-1.8,0.8-1.9,1.8
				c0,1,0.9,1.9,1.9,1.9c1,0,1.9-0.9,1.8-1.9C255.3,287.8,254.5,287,253.4,287z"/>
		</g>
	</g>
</g>
</svg>
