<?xml version="1.0" encoding="utf-8"?>
<!-- Generator: Adobe Illustrator 22.0.0, SVG Export Plug-In . SVG Version: 6.00 Build 0)  -->
<svg version="1.1" id="Layer_1" xmlns="http://www.w3.org/2000/svg" xmlns:xlink="http://www.w3.org/1999/xlink" x="0px" y="0px"
	 viewBox="0 0 300 300" style="enable-background:new 0 0 300 300;" xml:space="preserve">
<style type="text/css">
	.st0{opacity:0.15;clip-path:url(#SVGID_2_);fill:#FFFFFF;enable-background:new    ;}
	.st1{clip-path:url(#SVGID_2_);}
	.st2{fill:#FFFFFF;}
</style>
<g>
	<g>
		<defs>
			<rect id="SVGID_1_" width="300" height="300"/>
		</defs>
		<clipPath id="SVGID_2_">
			<use xlink:href="#SVGID_1_"  style="overflow:visible;"/>
		</clipPath>
		<circle class="st0" cx="306.6" cy="308.5" r="100.6"/>
		<g class="st1">
			<path class="st2" d="M278.8,244c0.3,0.3,0.7,0.6,0.9,0.9c0.7,0.9,1.2,2,2,2.8c0.2,0.3,0.7,0.6,1,0.7c1.2,0.4,2.4,0.7,3.5,1
				c1.2,0.4,1.4,1.2,0.7,2.2c-0.7,0.9-1.5,1.8-2.2,2.7c-0.4,0.4-0.5,0.9-0.4,1.4c0.1,1.2,0.1,2.5,0.2,3.6c0.1,1.1-0.8,1.7-1.8,1.3
				c-1.1-0.4-2.2-0.9-3.3-1.3c-0.5-0.2-1-0.2-1.5,0c-1.1,0.4-2.2,0.9-3.3,1.3s-1.9-0.1-1.9-1.3c0.1-1.2,0.1-2.4,0.2-3.6
				c0.1-0.6-0.1-1-0.5-1.4c-0.7-0.8-1.4-1.7-2.1-2.5c-0.9-1.2-0.7-2,0.7-2.4c1.1-0.3,2.2-0.7,3.3-0.9c0.6-0.1,0.9-0.4,1.2-0.9
				c0.6-0.9,1.2-1.8,1.8-2.7c0.2-0.4,0.6-0.6,0.9-0.9C278.4,244,278.6,244,278.8,244z"/>
			<path class="st2" d="M278.3,299.9c-3.4,0-6.8,0-10.2,0c-1,0-1.4-0.4-1.4-1.4c0-3.1,0-6.2,0-9.3c0-0.6-0.2-1-0.7-1.4
				c-4.2-3.3-6.7-7.6-7.6-12.8c-0.4-2.3-0.4-4.7-0.2-7.1c0.1-2,1.9-3.5,3.8-3.3c2,0.1,3.5,1.7,3.5,3.7c0,1.3,0,2.7,0,4
				c0.1,6.2,4.8,11.6,11,12.4c7,1,13.4-3.6,14.6-10.6c0.2-1.4,0.1-2.9,0.2-4.3c0-0.7,0-1.2,0.1-1.9c0.2-2,1.8-3.3,3.7-3.3
				c1.9,0,3.5,1.4,3.6,3.3c0.1,3.5,0.1,7-1.1,10.3c-1.4,3.8-3.6,7-6.8,9.5c-0.6,0.5-0.9,1-0.9,1.7c0,3,0,6,0,9
				c0,1.2-0.4,1.5-1.5,1.5C285.1,299.9,281.7,299.9,278.3,299.9z"/>
			<path class="st2" d="M272.1,271.9c0.1-3.5,2.9-6.3,6.4-6.2c3.5,0.1,6.2,2.9,6.2,6.4c-0.1,3.5-2.9,6.2-6.4,6.2
				C274.8,278.2,272,275.3,272.1,271.9z"/>
			<path class="st2" d="M300,250.8c-0.2,0.4-0.4,0.9-0.7,1.2c-2.2,2.2-4.5,4.5-6.7,6.7c-0.7,0.7-1.8,0.7-2.5,0
				c-0.7-0.7-0.7-1.7,0-2.4c2.2-2.2,4.5-4.5,6.7-6.7c0.6-0.5,1.2-0.7,1.9-0.4C299.6,249.5,299.9,250.1,300,250.8z"/>
			<path class="st2" d="M265.9,259.3c-0.4-0.2-0.9-0.4-1.2-0.7c-2.2-2.2-4.5-4.5-6.7-6.7c-0.7-0.7-0.7-1.7,0-2.4
				c0.7-0.7,1.7-0.7,2.4,0c2.2,2.2,4.6,4.5,6.8,6.8c0.5,0.5,0.7,1.2,0.4,1.9C267.2,258.8,266.7,259.2,265.9,259.3z"/>
		</g>
	</g>
</g>
</svg>
