<?xml version="1.0" encoding="utf-8"?>
<!-- Generator: Adobe Illustrator 22.0.0, SVG Export Plug-In . SVG Version: 6.00 Build 0)  -->
<svg version="1.1" id="Layer_1" xmlns="http://www.w3.org/2000/svg" xmlns:xlink="http://www.w3.org/1999/xlink" x="0px" y="0px"
	 viewBox="0 0 300 300" style="enable-background:new 0 0 300 300;" xml:space="preserve">
<style type="text/css">
	.st0{opacity:0.15;clip-path:url(#SVGID_2_);fill:#FFFFFF;enable-background:new    ;}
	.st1{clip-path:url(#SVGID_4_);}
	.st2{fill:#FFFFFF;}
</style>
<g>
	<g>
		<g>
			<g>
				<g>
					<defs>
						<rect id="SVGID_1_" width="300" height="300"/>
					</defs>
					<clipPath id="SVGID_2_">
						<use xlink:href="#SVGID_1_"  style="overflow:visible;"/>
					</clipPath>
					<circle class="st0" cx="306.6" cy="308.5" r="100.6"/>
				</g>
			</g>
		</g>
		<g>
			<g>
				<g>
					<defs>
						<rect id="SVGID_3_" width="300" height="300"/>
					</defs>
					<clipPath id="SVGID_4_">
						<use xlink:href="#SVGID_3_"  style="overflow:visible;"/>
					</clipPath>
					<g class="st1">
						<path class="st2" d="M300,263.6c-0.2,1-0.3,2.1-0.5,3.1c-0.7,3.3-2,6.2-3.7,9c-0.2,0.3-0.3,0.6-0.2,1.1
							c0.1,0.9-0.1,1.7-0.7,2.3c-2.1,2.1-4.3,4.2-6.4,6.3c-0.3-0.3-0.6-0.6-1.1-1.1c0.1-0.1,0.3-0.2,0.5-0.3
							c1.9-1.9,3.7-3.7,5.6-5.6c0.4-0.4,0.7-0.9,0.6-1.5c-0.2-1.2-1.7-1.7-2.6-0.9c-0.5,0.4-1,0.9-1.4,1.4c-1.9,1.9-3.9,3.9-5.9,5.9
							c-0.3-0.4-0.7-0.8-1-1.2c0,0,0.2-0.2,0.3-0.3c2.7-2.7,5.4-5.4,8.1-8.1c0.5-0.5,0.8-1,0.6-1.8c-0.3-1.1-1.6-1.5-2.5-0.8
							c-0.3,0.2-0.5,0.5-0.7,0.7c-2.6,2.6-5.2,5.2-7.8,7.8c-0.1,0.1-0.2,0.2-0.3,0.3c-0.3-0.4-0.7-0.7-1.1-1.3
							c0.1-0.1,0.3-0.1,0.5-0.3c3.4-3.4,6.8-6.8,10.2-10.2c0.5-0.5,0.8-1,0.6-1.7c-0.3-1.1-1.5-1.6-2.4-0.9
							c-0.2,0.1-0.4,0.3-0.5,0.5c-3.3,3.3-6.7,6.7-10,10c-0.2,0.2-0.3,0.4-0.4,0.5c-0.4-0.4-0.8-0.8-1.3-1.2
							c0.1-0.1,0.3-0.2,0.5-0.3c2.7-2.7,5.4-5.4,8.1-8.1c0.5-0.5,0.7-1,0.6-1.6c-0.3-1.1-1.6-1.6-2.5-0.9c-0.2,0.1-0.3,0.3-0.5,0.4
							c-4.1,4.1-8.2,8.2-12.3,12.3c-0.1,0.1-0.3,0.3-0.4,0.5c-0.4-0.4-0.7-0.8-1.1-1.2c0,0.1,0,0,0,0c0.9-0.6,1.1-1.5,1.1-2.6
							c0-1.5,0.2-3,0.3-4.5c0.1-1.3-0.5-2-1.7-2.2c-0.3-0.1-0.5-0.1-0.8-0.2c-0.1,0.1-0.1,0.3-0.2,0.4c-1,3.1-1.9,6.3-2.9,9.4
							c-0.1,0.2-0.1,0.5-0.1,0.8c0.2,2.4,0.4,4.9,0.6,7.3c0,0.4-0.1,0.6-0.3,0.8c-1.1,1.1-2.2,2.2-3.3,3.3c-0.3,0.3-0.4,0.6-0.3,1.1
							c0.4,1.3,1.1,2.3,1.9,3.3c1.6,1.9,3.4,3.6,5.7,4.7c0.1,0.1,0.3,0.1,0.4,0.2c0.6,0.3,1.1,0.2,1.6-0.3c1.6-1.6,3.2-3.2,4.8-4.8
							c0.2-0.2,0.5-0.4,0.8-0.5c1.2-0.3,2.3-0.6,3.5-0.9c0.3-0.1,0.6-0.2,0.8-0.5c1.2-1.1,2.3-2.3,3.5-3.4c0.4,0.4,0.7,0.8,1.1,1.2
							c-0.8,0.8-1.7,1.6-2.5,2.5c-1,1.2-2.2,1.9-3.7,2.1c-1.7,0.2-3,1-4.1,2.3c-1,1.1-2.1,2.1-3.2,3.2c-0.4,0.4-0.9,0.6-1.3,0.9
							c-0.3,0-0.7,0-1,0c-0.6-0.3-1.3-0.4-1.9-0.8c-3.1-1.7-5.5-4.2-7.3-7.3c-0.3-0.6-0.5-1.3-0.7-2c-0.2-0.7,0-1.4,0.6-1.9
							c0.3-0.3,0.5-0.5,0.8-0.8c-0.3-0.3-0.6-0.5-0.8-0.7c-2.9-2.6-5.5-5.4-7.8-8.5c-2.5-3.4-4.3-7.1-5.2-11.2c-0.2-1-0.3-2-0.5-3.1
							c0-0.9,0-1.9,0-2.8c0.1-0.8,0.3-1.6,0.4-2.4c0.5,0.1,1,0.2,1.5,0.3c-0.1,0.6-0.2,1.1-0.2,1.6c-0.4,4.1,0.5,7.9,2.3,11.6
							c2.1,4.3,5.1,8,8.5,11.3c0.9,0.9,1.9,1.8,3,2.8c0.4-0.5,0.9-0.9,1.3-1.3c0.1-0.1,0.1-0.3,0.1-0.4c-0.2-2.4-0.4-4.7-0.6-7.1
							c0-0.2,0-0.4,0.1-0.6c1.1-3.8,2.3-7.5,3.4-11.3c0-0.1,0.1-0.1,0.1-0.3c1.1,0.3,2.3,0.5,3.4,0.9c1.2,0.5,1.9,1.6,1.8,3
							c0,1.4-0.1,2.7-0.2,4.1c0,0.1,0,0.3,0,0.5c0.2-0.2,0.3-0.3,0.5-0.4c3.2-3.2,6.4-6.4,9.7-9.7c1.2-1.2,2.9-1.4,4.2-0.4
							c0.5,0.4,0.9,1,1.4,1.6c0.7-0.7,1.7-1.1,2.9-0.9c0.7,0.1,1.3,0.5,1.8,1c1.1,1.3,1,2.8-0.3,4.4c1,0.4,1.7,1,2.1,2
							c0.4,1,0.2,1.9-0.3,2.8c0.4,0.2,0.9,0.5,1.4,0.7c0.6-1.2,1.3-2.4,1.8-3.7c1.3-3,2-6.2,1.9-9.5c-0.1-6.2-4.1-11.5-9.9-13
							c-4-1.1-7.7-0.3-11.2,1.7c-1.3,0.8-2.5,1.7-3.7,2.6c-0.1,0.1-0.3,0.2-0.4,0.3c-1-0.8-2-1.6-3.1-2.3c-2.7-1.8-5.6-2.8-8.9-2.8
							c-5.5,0.1-10.3,3.4-12.2,8.5c-0.1,0.2-0.1,0.4-0.2,0.6c-0.5-0.2-0.9-0.3-1.5-0.5c0.4-1.3,0.9-2.4,1.6-3.4
							c2.6-3.9,6.2-6.2,10.9-6.7c0.1,0,0.2-0.1,0.3-0.1c0.8,0,1.6,0,2.4,0c0.1,0,0.2,0.1,0.3,0.1c2.5,0.2,4.8,1,6.9,2.2
							c1.2,0.7,2.3,1.5,3.4,2.3c0.1-0.1,0.3-0.2,0.4-0.3c2.2-1.8,4.7-3.1,7.5-3.8c0.8-0.2,1.7-0.3,2.5-0.5c0.8,0,1.7,0,2.5,0
							c0.3,0,0.5,0.1,0.8,0.1c6.2,1,10.8,5.2,12.3,11.3c0.2,0.9,0.3,1.9,0.5,2.8C300,261.8,300,262.7,300,263.6z"/>
						<path class="st2" d="M287.7,250.5c0.5,0,1,0,1.5,0c0,0.5,0,1,0,1.5c-0.5,0-1,0-1.5,0C287.7,251.5,287.7,251,287.7,250.5z"/>
						<path class="st2" d="M292.4,253.6c-0.5,0-1,0-1.5,0c0-0.5,0-1,0-1.5c0.5,0,1,0,1.5,0C292.4,252.6,292.4,253,292.4,253.6z"/>
						<path class="st2" d="M287.3,286.8c-0.3,0.3-0.6,0.6-1,1c-0.4-0.4-0.7-0.7-1.1-1.1c0.4-0.3,0.7-0.7,1.1-1
							C286.6,286,286.9,286.4,287.3,286.8z"/>
					</g>
				</g>
			</g>
		</g>
	</g>
</g>
</svg>
